<svg width="1280" height="22" viewBox="0 0 1280 22" fill="none" xmlns="http://www.w3.org/2000/svg">
<path d="M1238 11C1238 11.5067 1238.38 11.9167 1238.86 11.9167L1277.07 11.9167L1269.11 20.4352C1268.94 20.6143 1268.86 20.8488 1268.86 21.0833C1268.86 21.3179 1268.94 21.5524 1269.11 21.7314C1269.44 22.0895 1269.99 22.0895 1270.32 21.7314L1279.75 11.6489C1279.83 11.5642 1279.89 11.4628 1279.94 11.3502C1280.02 11.1262 1280.02 10.8738 1279.93 10.6498C1279.89 10.5372 1279.83 10.4358 1279.75 10.3511L1270.32 0.268558C1269.99 -0.0895194 1269.44 -0.0895194 1269.11 0.268558C1268.77 0.626635 1268.77 1.20671 1269.11 1.56478L1277.07 10.0833L1238.86 10.0833C1238.38 10.0833 1238 10.4933 1238 11Z" fill="#111111"/>
<path d="M42 11C42 10.4933 41.6162 10.0833 41.1429 10.0833L2.92634 10.0833L10.8917 1.56478C11.2266 1.2067 11.2266 0.626623 10.8917 0.268555C10.5569 -0.0895136 10.0145 -0.0895228 9.67969 0.268555L0.251846 10.3511C0.172485 10.4358 0.109653 10.5372 0.0661278 10.6498C0.0228081 10.7618 0 10.8807 0 11C0 11.1193 0.0227585 11.2382 0.0660782 11.3502C0.109653 11.4627 0.172493 11.5642 0.251854 11.6489L9.6797 21.7314C10.0145 22.0895 10.5569 22.0895 10.8917 21.7314C11.2266 21.3734 11.2266 20.7933 10.8917 20.4352L2.92634 11.9167L41.1429 11.9167C41.6162 11.9167 42 11.5067 42 11Z" fill="#999999"/>
</svg>
