<svg width="436" height="224" viewBox="0 0 436 224" fill="none" xmlns="http://www.w3.org/2000/svg">
<g opacity="0.1">
<mask id="path-1-outside-1_1_335" maskUnits="userSpaceOnUse" x="-2" y="-0.999985" width="439" height="226" fill="black">
<rect fill="white" x="-2" y="-0.999985" width="439" height="226"/>
<path d="M90.7 0.650014H68.65V62.45L33.25 0.650014H13.15V104H35.05V41.45L71.05 104H90.7V0.650014ZM154.557 104V57.5L194.607 0.650014H168.507L143.307 39.35L118.407 0.650014H92.3066L132.207 57.2V104H154.557ZM229.462 51.8L268.612 0.650014H242.812L218.362 34.55V0.650014H196.162V104H218.362V68.9L249.412 104H277.912L229.462 51.8ZM279.318 104H346.068V84.65H301.218V62.6H339.318V43.55H301.218V20H344.718V0.650014H279.318V104ZM435.044 0.650014H412.994V62.45L377.594 0.650014H357.494V104H379.394V41.45L415.394 104H435.044V0.650014ZM39.85 180.5L50.35 144.5L61.3 180.5H39.85ZM68.35 199.55L77.5 224H100.6L62.35 120.65H38.5L0.1 224H23.5L32.65 199.55H68.35ZM103.777 120.65V224H125.677V120.65H103.777ZM182.92 140C191.32 140 195.37 148.1 195.37 154.55C195.37 161.15 190.87 169.1 182.32 169.1H163.72V140H182.92ZM192.52 187.4C210.22 183.8 218.32 169.1 218.32 154.55C218.32 137.6 207.37 120.65 183.97 120.65H141.67V224H163.72V188.3H168.67L191.77 224H218.17L192.52 187.4Z"/>
</mask>
<path d="M90.7 0.650014H91.7V-0.349986H90.7V0.650014ZM68.65 0.650014V-0.349986H67.65V0.650014H68.65ZM68.65 62.45L67.7823 62.9471L69.65 66.2077V62.45H68.65ZM33.25 0.650014L34.1177 0.152968L33.8296 -0.349986H33.25V0.650014ZM13.15 0.650014V-0.349986H12.15V0.650014H13.15ZM13.15 104H12.15V105H13.15V104ZM35.05 104V105H36.05V104H35.05ZM35.05 41.45L35.9167 40.9512L34.05 37.7078V41.45H35.05ZM71.05 104L70.1833 104.499L70.4717 105H71.05V104ZM90.7 104V105H91.7V104H90.7ZM90.7 -0.349986H68.65V1.65001H90.7V-0.349986ZM67.65 0.650014V62.45H69.65V0.650014H67.65ZM69.5177 61.953L34.1177 0.152968L32.3823 1.14706L67.7823 62.9471L69.5177 61.953ZM33.25 -0.349986H13.15V1.65001H33.25V-0.349986ZM12.15 0.650014V104H14.15V0.650014H12.15ZM13.15 105H35.05V103H13.15V105ZM36.05 104V41.45H34.05V104H36.05ZM34.1833 41.9488L70.1833 104.499L71.9167 103.501L35.9167 40.9512L34.1833 41.9488ZM71.05 105H90.7V103H71.05V105ZM91.7 104V0.650014H89.7V104H91.7ZM154.557 104V105H155.557V104H154.557ZM154.557 57.5L153.739 56.9241L153.557 57.1831V57.5H154.557ZM194.607 0.650014L195.424 1.22593L196.534 -0.349986H194.607V0.650014ZM168.507 0.650014V-0.349986H167.964L167.669 0.104341L168.507 0.650014ZM143.307 39.35L142.466 39.8911L143.302 41.1903L144.145 39.8957L143.307 39.35ZM118.407 0.650014L119.248 0.108927L118.952 -0.349986H118.407V0.650014ZM92.3066 0.650014V-0.349986H90.3772L91.4896 1.22653L92.3066 0.650014ZM132.207 57.2H133.207V56.8827L133.024 56.6235L132.207 57.2ZM132.207 104H131.207V105H132.207V104ZM155.557 104V57.5H153.557V104H155.557ZM155.374 58.0759L195.424 1.22593L193.789 0.0740929L153.739 56.9241L155.374 58.0759ZM194.607 -0.349986H168.507V1.65001H194.607V-0.349986ZM167.669 0.104341L142.469 38.8043L144.145 39.8957L169.345 1.19569L167.669 0.104341ZM144.148 38.8089L119.248 0.108927L117.566 1.1911L142.466 39.8911L144.148 38.8089ZM118.407 -0.349986H92.3066V1.65001H118.407V-0.349986ZM91.4896 1.22653L131.39 57.7765L133.024 56.6235L93.1237 0.0735006L91.4896 1.22653ZM131.207 57.2V104H133.207V57.2H131.207ZM132.207 105H154.557V103H132.207V105ZM229.462 51.8L228.668 51.1922L228.155 51.862L228.729 52.4803L229.462 51.8ZM268.612 0.650014L269.406 1.25781L270.636 -0.349986H268.612V0.650014ZM242.812 0.650014V-0.349986H242.3L242.001 0.0650473L242.812 0.650014ZM218.362 34.55H217.362V37.646L219.173 35.135L218.362 34.55ZM218.362 0.650014H219.362V-0.349986H218.362V0.650014ZM196.162 0.650014V-0.349986H195.162V0.650014H196.162ZM196.162 104H195.162V105H196.162V104ZM218.362 104V105H219.362V104H218.362ZM218.362 68.9L219.111 68.2374L217.362 66.2603V68.9H218.362ZM249.412 104L248.663 104.663L248.961 105H249.412V104ZM277.912 104V105H280.204L278.645 103.32L277.912 104ZM230.256 52.4078L269.406 1.25781L267.818 0.0422177L228.668 51.1922L230.256 52.4078ZM268.612 -0.349986H242.812V1.65001H268.612V-0.349986ZM242.001 0.0650473L217.551 33.965L219.173 35.135L243.623 1.23498L242.001 0.0650473ZM219.362 34.55V0.650014H217.362V34.55H219.362ZM218.362 -0.349986H196.162V1.65001H218.362V-0.349986ZM195.162 0.650014V104H197.162V0.650014H195.162ZM196.162 105H218.362V103H196.162V105ZM219.362 104V68.9H217.362V104H219.362ZM217.613 69.5626L248.663 104.663L250.161 103.337L219.111 68.2374L217.613 69.5626ZM249.412 105H277.912V103H249.412V105ZM278.645 103.32L230.195 51.1197L228.729 52.4803L277.179 104.68L278.645 103.32ZM279.318 104H278.318V105H279.318V104ZM346.068 104V105H347.068V104H346.068ZM346.068 84.65H347.068V83.65H346.068V84.65ZM301.218 84.65H300.218V85.65H301.218V84.65ZM301.218 62.6V61.6H300.218V62.6H301.218ZM339.318 62.6V63.6H340.318V62.6H339.318ZM339.318 43.55H340.318V42.55H339.318V43.55ZM301.218 43.55H300.218V44.55H301.218V43.55ZM301.218 20V19H300.218V20H301.218ZM344.718 20V21H345.718V20H344.718ZM344.718 0.650014H345.718V-0.349986H344.718V0.650014ZM279.318 0.650014V-0.349986H278.318V0.650014H279.318ZM279.318 105H346.068V103H279.318V105ZM347.068 104V84.65H345.068V104H347.068ZM346.068 83.65H301.218V85.65H346.068V83.65ZM302.218 84.65V62.6H300.218V84.65H302.218ZM301.218 63.6H339.318V61.6H301.218V63.6ZM340.318 62.6V43.55H338.318V62.6H340.318ZM339.318 42.55H301.218V44.55H339.318V42.55ZM302.218 43.55V20H300.218V43.55H302.218ZM301.218 21H344.718V19H301.218V21ZM345.718 20V0.650014H343.718V20H345.718ZM344.718 -0.349986H279.318V1.65001H344.718V-0.349986ZM278.318 0.650014V104H280.318V0.650014H278.318ZM435.044 0.650014H436.044V-0.349986H435.044V0.650014ZM412.994 0.650014V-0.349986H411.994V0.650014H412.994ZM412.994 62.45L412.126 62.9471L413.994 66.2077V62.45H412.994ZM377.594 0.650014L378.461 0.152968L378.173 -0.349986H377.594V0.650014ZM357.494 0.650014V-0.349986H356.494V0.650014H357.494ZM357.494 104H356.494V105H357.494V104ZM379.394 104V105H380.394V104H379.394ZM379.394 41.45L380.26 40.9512L378.394 37.7078V41.45H379.394ZM415.394 104L414.527 104.499L414.815 105H415.394V104ZM435.044 104V105H436.044V104H435.044ZM435.044 -0.349986H412.994V1.65001H435.044V-0.349986ZM411.994 0.650014V62.45H413.994V0.650014H411.994ZM413.861 61.953L378.461 0.152968L376.726 1.14706L412.126 62.9471L413.861 61.953ZM377.594 -0.349986H357.494V1.65001H377.594V-0.349986ZM356.494 0.650014V104H358.494V0.650014H356.494ZM357.494 105H379.394V103H357.494V105ZM380.394 104V41.45H378.394V104H380.394ZM378.527 41.9488L414.527 104.499L416.26 103.501L380.26 40.9512L378.527 41.9488ZM415.394 105H435.044V103H415.394V105ZM436.044 104V0.650014H434.044V104H436.044ZM39.85 180.5L38.89 180.22L38.5167 181.5H39.85V180.5ZM50.35 144.5L51.3067 144.209L50.3299 140.998L49.39 144.22L50.35 144.5ZM61.3 180.5V181.5H62.6494L62.2567 180.209L61.3 180.5ZM68.35 199.55L69.2866 199.2L69.0435 198.55H68.35V199.55ZM77.5 224L76.5634 224.351L76.8065 225H77.5V224ZM100.6 224V225H102.036L101.538 223.653L100.6 224ZM62.35 120.65L63.2878 120.303L63.0462 119.65H62.35V120.65ZM38.5 120.65V119.65H37.8048L37.5626 120.302L38.5 120.65ZM0.1 224L-0.837387 223.652L-1.33835 225H0.1V224ZM23.5 224V225H24.1935L24.4366 224.351L23.5 224ZM32.65 199.55V198.55H31.9565L31.7134 199.2L32.65 199.55ZM40.81 180.78L51.31 144.78L49.39 144.22L38.89 180.22L40.81 180.78ZM49.3933 144.791L60.3433 180.791L62.2567 180.209L51.3067 144.209L49.3933 144.791ZM61.3 179.5H39.85V181.5H61.3V179.5ZM67.4134 199.901L76.5634 224.351L78.4366 223.65L69.2866 199.2L67.4134 199.901ZM77.5 225H100.6V223H77.5V225ZM101.538 223.653L63.2878 120.303L61.4122 120.997L99.6622 224.347L101.538 223.653ZM62.35 119.65H38.5V121.65H62.35V119.65ZM37.5626 120.302L-0.837387 223.652L1.03739 224.348L39.4374 120.998L37.5626 120.302ZM0.1 225H23.5V223H0.1V225ZM24.4366 224.351L33.5866 199.901L31.7134 199.2L22.5634 223.65L24.4366 224.351ZM32.65 200.55H68.35V198.55H32.65V200.55ZM103.777 120.65V119.65H102.777V120.65H103.777ZM103.777 224H102.777V225H103.777V224ZM125.677 224V225H126.677V224H125.677ZM125.677 120.65H126.677V119.65H125.677V120.65ZM102.777 120.65V224H104.777V120.65H102.777ZM103.777 225H125.677V223H103.777V225ZM126.677 224V120.65H124.677V224H126.677ZM125.677 119.65H103.777V121.65H125.677V119.65ZM163.72 169.1H162.72V170.1H163.72V169.1ZM163.72 140V139H162.72V140H163.72ZM192.52 187.4L192.32 186.42L190.825 186.724L191.701 187.974L192.52 187.4ZM141.67 120.65V119.65H140.67V120.65H141.67ZM141.67 224H140.67V225H141.67V224ZM163.72 224V225H164.72V224H163.72ZM163.72 188.3V187.3H162.72V188.3H163.72ZM168.67 188.3L169.509 187.757L169.214 187.3H168.67V188.3ZM191.77 224L190.93 224.543L191.226 225H191.77V224ZM218.17 224V225H220.091L218.988 223.426L218.17 224ZM182.92 141C186.752 141 189.582 142.831 191.486 145.445C193.41 148.086 194.37 151.512 194.37 154.55H196.37C196.37 151.138 195.304 147.289 193.103 144.267C190.882 141.219 187.487 139 182.92 139V141ZM194.37 154.55C194.37 157.643 193.31 161.06 191.262 163.685C189.233 166.287 186.247 168.1 182.32 168.1V170.1C186.942 170.1 190.482 167.938 192.839 164.915C195.179 161.915 196.37 158.058 196.37 154.55H194.37ZM182.32 168.1H163.72V170.1H182.32V168.1ZM164.72 169.1V140H162.72V169.1H164.72ZM163.72 141H182.92V139H163.72V141ZM192.719 188.38C210.991 184.664 219.32 169.458 219.32 154.55H217.32C217.32 168.742 209.448 182.936 192.32 186.42L192.719 188.38ZM219.32 154.55C219.32 145.869 216.516 137.146 210.666 130.579C204.799 123.992 195.931 119.65 183.97 119.65V121.65C195.408 121.65 203.715 125.783 209.173 131.909C214.648 138.054 217.32 146.281 217.32 154.55H219.32ZM183.97 119.65H141.67V121.65H183.97V119.65ZM140.67 120.65V224H142.67V120.65H140.67ZM141.67 225H163.72V223H141.67V225ZM164.72 224V188.3H162.72V224H164.72ZM163.72 189.3H168.67V187.3H163.72V189.3ZM167.83 188.843L190.93 224.543L192.609 223.457L169.509 187.757L167.83 188.843ZM191.77 225H218.17V223H191.77V225ZM218.988 223.426L193.338 186.826L191.701 187.974L217.351 224.574L218.988 223.426Z" fill="#111111" mask="url(#path-1-outside-1_1_335)"/>
</g>
</svg>
